<svg width="96" height="96" xmlns="http://www.w3.org/2000/svg" xmlns:xlink="http://www.w3.org/1999/xlink" xml:space="preserve" overflow="hidden"><g transform="translate(-574 -575)"><path d="M605 606 594 606 594 599 605 599 605 606ZM620 599 620 606 609 606 609 599 620 599ZM635 599 635 606 624 606 624 599 635 599ZM650 599 650 606 639 606 639 599 650 599ZM650 617 639 617 639 610 650 610 650 617ZM650 625.5 639 626.5 639 621 650 621 650 625.5ZM605 621 605 629.5 594 630.5 594 621 605 621ZM605 617 594 617 594 610 605 610 605 617ZM620 617 609 617 609 610 620 610 620 617ZM624 617 624 610 635 610 635 617 624 617ZM620 628.2 609 629.2 609 621 620 621 620 628.2ZM624 621 635 621 635 626.8 624 627.8 624 621ZM656 631 656 593 594 593 594 592C594 587 590 583 585 583 583.3 583 582 584.3 582 586 582 587.7 583.3 589 585 589 586.7 589 588 590.3 588 592L588 642C588 647 592 651 597 651L600 651 644 651 653 651C654.7 651 656 649.7 656 648 656 646.3 654.7 645 653 645L597 645C595.3 645 594 643.7 594 642L594 636.5 656 631Z" fill="#FFFFFF"/><path d="M606 657C606 660.314 603.314 663 600 663 596.686 663 594 660.314 594 657 594 653.686 596.686 651 600 651 603.314 651 606 653.686 606 657Z" fill="#FFFFFF"/><path d="M650 657C650 660.314 647.314 663 644 663 640.686 663 638 660.314 638 657 638 653.686 640.686 651 644 651 647.314 651 650 653.686 650 657Z" fill="#FFFFFF"/></g></svg>