<svg width="96" height="96" xmlns="http://www.w3.org/2000/svg" xmlns:xlink="http://www.w3.org/1999/xlink" xml:space="preserve" overflow="hidden"><g transform="translate(-583 -396)"><path d="M656 443C654.3 443 653 441.7 653 440 653 438.3 654.3 437 656 437 657.7 437 659 438.3 659 440 659 441.7 657.7 443 656 443ZM650 449C648.3 449 647 447.7 647 446 647 444.3 648.3 443 650 443 651.7 443 653 444.3 653 446 653 447.7 651.7 449 650 449ZM644 443C642.3 443 641 441.7 641 440 641 438.3 642.3 437 644 437 645.7 437 647 438.3 647 440 647 441.7 645.7 443 644 443ZM650 431C651.7 431 653 432.3 653 434 653 435.7 651.7 437 650 437 648.3 437 647 435.7 647 434 647 432.3 648.3 431 650 431ZM618 442 614 442 614 446C614 447.1 613.1 448 612 448 610.9 448 610 447.1 610 446L610 442 606 442C604.9 442 604 441.1 604 440 604 438.9 604.9 438 606 438L610 438 610 434C610 432.9 610.9 432 612 432 613.1 432 614 432.9 614 434L614 438 618 438C619.1 438 620 438.9 620 440 620 441.1 619.1 442 618 442ZM654 416C642.2 416 648.2 422 631 422 613.8 422 619.8 416 608 416 595.4 416 579.4 472 596 472 611.3 472 605.5 458 631 458 656.5 458 650.7 472 666 472 682.6 472 666.6 416 654 416Z" stroke="#F2F2F2"/></g></svg>