<svg width="96" height="96" xmlns="http://www.w3.org/2000/svg" xmlns:xlink="http://www.w3.org/1999/xlink" xml:space="preserve" overflow="hidden"><g transform="translate(-27 -197)"><path d="M103 257 47 257 47 223 103 223 103 257ZM109 221C109 218.8 107.2 217 105 217L45 217C42.8 217 41 218.8 41 221L41 263 109 263 109 221Z" stroke="#FFFFFF"/><path d="M81 267 81 268C81 268.6 80.6 269 80 269L70 269C69.4 269 69 268.6 69 268L69 267 29 267 29 269C29 271.2 30.8 273 33 273L117 273C119.2 273 121 271.2 121 269L121 267 81 267Z" stroke="#FFFFFF"/></g></svg>