<svg width="96" height="96" xmlns="http://www.w3.org/2000/svg" xmlns:xlink="http://www.w3.org/1999/xlink" xml:space="preserve" overflow="hidden"><g transform="translate(-602 -293)"><path d="M658 351 610 351 610 319 658 319 658 351ZM660 313 608 313C605.8 313 604 314.8 604 317L604 353C604 355.2 605.8 357 608 357L628 357 628 363 619 363 619 369 649 369 649 363 640 363 640 357 660 357C662.2 357 664 355.2 664 353L664 317C664 314.8 662.2 313 660 313Z" stroke="#FFFFFF"/><path d="M692 323 672 323 672 317 692 317 692 323ZM692 333 672 333 672 327 692 327 692 333ZM682 363C680.3 363 679 361.7 679 360 679 358.3 680.3 357 682 357 683.7 357 685 358.3 685 360 685 361.7 683.7 363 682 363ZM692 313 672 313C669.8 313 668 314.8 668 317L668 365C668 367.2 669.8 369 672 369L692 369C694.2 369 696 367.2 696 365L696 317C696 314.8 694.2 313 692 313Z" stroke="#FFFFFF"/></g></svg>