<svg width="96" height="96" xmlns="http://www.w3.org/2000/svg" xmlns:xlink="http://www.w3.org/1999/xlink" xml:space="preserve" overflow="hidden"><g transform="translate(-433 -574)"><path d="M511 594 494 594 494 589C494 585.1 490.9 582 487 582L475 582C471.1 582 468 585.1 468 589L468 594 451 594C448.8 594 447 595.8 447 598L447 602 515 602 515 598C515 595.8 513.2 594 511 594ZM474 589C474 588.4 474.4 588 475 588L487 588C487.6 588 488 588.4 488 589L488 594 474 594 474 589Z" fill="#FFFFFF"/><path d="M453 658C453 660.2 454.8 662 457 662L505 662C507.2 662 509 660.2 509 658L509 606 453 606 453 658ZM494 612 500 612 500 656 494 656 494 612ZM478 612 484 612 484 656 478 656 478 612ZM462 612 468 612 468 656 462 656 462 612Z" fill="#FFFFFF"/></g></svg>